# xmcd CD database file
#
# Track frame offsets:
#	150
#	19803
#	40485
#	63004
#	80884
#	99334
#	118819
#	136346
#	152271
#	174910
#	195361
#	221307
#	246505
#	264266
#	279570
#	298408
#	320534
#
# Disc length: 4510 seconds
#
# Revision: 0
# Processed by: cddbd v1.5.1PL2 Copyright (c) Steve Scherf et al.
# Submitted via: CDex 1.51
#
DISCID=f1119c11
DTITLE=Bachatiando - Con los grandes 2006
DYEAR=2006
DGENRE=Merengue
TTITLE0=FrankReyes-Es mentira tu amor
TTITLE1=Anthony Santos-Dejame amarte otra vez
TTITLE2=Zacarias-manana en tu olvido
TTITLE3=Yoskar Sarante-Mi barca
TTITLE4=Oscar Paniaqua-Amor maldito
TTITLE5=Jaime Zabala-Abre tu ventana
TTITLE6=Joe Veras-Curame las heridas
TTITLE7=Kiko Rodriguez-Bandida
TTITLE8=Raulin Rodrigez-Tu primer beso
TTITLE9=Joskar Sarante-Muero muero
TTITLE10=Anthony Santos-Lloro
TTITLE11=Raulin Rodrigez-Piel sin Alma
TTITLE12=Luis Miquel del Amarque-Debi Adorarla
TTITLE13=Frank Reyes-Princesa
TTITLE14=Jimy Bauer-Todo el Amor
TTITLE15=Kiko Rodriguez-Ayudame dios mio
TTITLE16=Zacarias-Eva Maria
EXTD=YEAR: 2006
EXTT0=
EXTT1=
EXTT2=
EXTT3=
EXTT4=
EXTT5=
EXTT6=
EXTT7=
EXTT8=
EXTT9=
EXTT10=
EXTT11=
EXTT12=
EXTT13=
EXTT14=
EXTT15=
EXTT16=
PLAYORDER=
